<?xml version="1.0" encoding="utf-8"?>
<!-- Generator: Adobe Illustrator 25.0.1, SVG Export Plug-In . SVG Version: 6.00 Build 0)  -->
<svg version="1.1" id="Calque_1" xmlns="http://www.w3.org/2000/svg" xmlns:xlink="http://www.w3.org/1999/xlink" x="0px" y="0px"
	 viewBox="0 0 488 110" style="enable-background:new 0 0 488 110;" xml:space="preserve">
<style type="text/css">
	.st0{fill:#FBBB13;}
	.st1{fill:#FFFFFF;}
</style>
<g>
	<g>
		<g>
			<g>
				<path class="st0" d="M111.22,48.39c-2.34,5.95-3.7,13.36-15.05,16.13c-11.35,2.77-14.45-2.65-18.51-3.99
					c-4.05-1.34-4.56,0.61-6.54-0.85c-1.98-1.46-3.29-3.6-5.92-3.43c0,0,5.74-4.59,9.01-10.44c3.27-5.85,3.34-8.38,6.35-11.23
					s8.46-4.99,14.68-2.66s6.59,2.76,7.01,3.73c0.42,0.98,4.51,1.07,5.72,5.22C109.19,45.02,112.09,46.17,111.22,48.39z"/>
				<path d="M92.78,58.45c-3.86,1.19-7.77-2.09-8.85-5.58c-1.3-4.21-0.17-9.53,3.35-12.37c2.04-1.65,4.9-3.43,7.56-3.66
					c3.36-0.29,6.03,3.28,6.99,6.19C104.08,49.81,99.15,56.49,92.78,58.45z"/>
			</g>
			<g>
				<path class="st1" d="M13.27,36.41c5.39-3.44,10.85-8.64,21.65-4.2s10.14,10.64,12.62,14.11c2.49,3.47,4.05,2.18,4.79,4.53
					c0.74,2.35,0.54,4.85,2.77,6.25c0,0-7.34,0.34-13.42,3.15c-6.08,2.81-7.63,4.82-11.74,5.35s-9.78-0.93-13.44-6.48
					s-3.71-6.1-3.48-7.14s-3.02-3.52-1.56-7.58S11.26,37.69,13.27,36.41z"/>
				<path class="st1" d="M24.93,96.27c-1.6-6.19-4.86-12.98,2.69-21.89s13.25-6.35,17.32-7.65c4.07-1.3,3.33-3.18,5.79-3.16
					c2.46,0.02,4.78,0.98,6.8-0.7c0,0-1.94,7.09-1.15,13.74s2.23,8.74,1.46,12.82c-0.77,4.08-3.91,9.01-10.31,10.78
					s-6.95,1.64-7.87,1.1c-0.91-0.54-4.28,1.79-7.69-0.86C28.56,97.8,25.53,98.57,24.93,96.27z"/>
				<path class="st1" d="M85.47,103.67c-6.38-0.39-13.85,0.61-19.99-9.33s-1.95-14.57-1.92-18.83c0.02-4.27-1.99-4.15-1.21-6.48
					c0.78-2.34,2.41-4.24,1.44-6.69c0,0,6.14,4.04,12.71,5.34c6.57,1.3,9,0.58,12.64,2.57s7.36,6.5,7.06,13.14s-0.59,7.12-1.38,7.82
					c-0.8,0.7,0.38,4.62-3.19,7.05C88.05,100.7,87.84,103.82,85.47,103.67z"/>
				<path class="st1" d="M66.59,6.81c4.93,4.06,11.57,7.65,10.69,19.3s-6.99,12.93-9.51,16.37c-2.53,3.44-0.83,4.53-2.83,5.96
					c-2,1.43-4.44,2.01-5.09,4.57c0,0-2.6-6.88-7.15-11.79s-6.94-5.76-8.71-9.51S41.85,22.1,46,16.91s4.66-5.42,5.72-5.51
					c1.06-0.1,2.41-3.96,6.73-3.83S64.76,5.3,66.59,6.81z"/>
			</g>
		</g>
		<circle class="st1" cx="95.79" cy="41.07" r="2.89"/>
		<circle class="st1" cx="93.04" cy="44.88" r="1.39"/>
	</g>
	<path class="st1" d="M135.02,24.35v8.99h16.96v-8.99h7.59v24.59h-7.63v-9.58h-17v9.58h-7.63V24.35H135.02z"/>
	<path class="st1" d="M192.35,34.38l8.29-10.03h9.82l-14.21,15.99v8.6h-7.7v-8.6l-13.97-15.99h9.51L192.35,34.38z"/>
	<path class="st1" d="M246.69,24.35l13.86,24.59h-8.53l-2.3-4.39h-15.85l-2.33,4.39h-8.29l13.65-24.59H246.69z M236.63,39.37h10.35
		l-5.09-9.58L236.63,39.37z"/>
	<path class="st1" d="M299.46,33.06c0-0.37-0.02-0.7-0.07-0.99c-0.05-0.29-0.2-0.6-0.45-0.92c-0.3-0.37-0.67-0.6-1.11-0.7
		c-0.44-0.09-0.92-0.16-1.43-0.21c-0.72-0.05-1.44-0.08-2.16-0.1c-0.72-0.02-1.45-0.04-2.19-0.04c-1.51,0-3.04,0.04-4.59,0.1
		c-0.19,0-0.38,0.01-0.59,0.02c-0.21,0.01-0.41,0.03-0.59,0.05c-0.16,0.02-0.38,0.06-0.64,0.1c-0.27,0.05-0.55,0.15-0.83,0.3
		c-0.29,0.15-0.57,0.37-0.83,0.64s-0.47,0.66-0.61,1.15c-0.12,0.37-0.19,0.91-0.23,1.6c-0.04,0.7-0.05,1.5-0.05,2.4v1.81
		c0.02,0.67,0.08,1.35,0.17,2.02c0.09,0.67,0.38,1.23,0.87,1.67c0.28,0.26,0.59,0.45,0.94,0.59c0.35,0.14,0.68,0.24,0.99,0.31
		c0.31,0.07,0.59,0.12,0.83,0.14c0.24,0.02,0.4,0.03,0.47,0.03h9c0.02,0,0.14-0.01,0.35-0.03c0.21-0.02,0.45-0.06,0.73-0.12
		c0.28-0.06,0.56-0.15,0.85-0.28c0.29-0.13,0.53-0.31,0.71-0.54c0.26-0.3,0.41-0.67,0.47-1.1c0.06-0.43,0.11-0.88,0.16-1.34h7.52
		c0,0.37-0.01,0.74-0.02,1.1c-0.01,0.36-0.03,0.74-0.05,1.13c-0.02,0.53-0.06,1.06-0.1,1.57c-0.05,0.51-0.14,1-0.28,1.48
		c-0.14,0.48-0.34,0.92-0.59,1.34c-0.26,0.42-0.6,0.8-1.04,1.15c-0.67,0.56-1.39,0.93-2.16,1.11c-0.77,0.19-1.56,0.34-2.37,0.45
		c-1.32,0.09-2.65,0.16-3.97,0.21s-2.65,0.07-3.97,0.07c-1.46,0-2.91-0.02-4.34-0.05c-1.43-0.04-2.87-0.08-4.34-0.12
		c-1.14-0.19-2.24-0.41-3.31-0.66c-1.07-0.26-2-0.75-2.79-1.5c-0.79-0.72-1.31-1.49-1.55-2.32c-0.24-0.82-0.42-1.75-0.54-2.77
		c-0.07-0.86-0.13-1.72-0.19-2.58c-0.06-0.86-0.09-1.73-0.09-2.61c0-0.91,0.03-1.8,0.09-2.7c0.06-0.89,0.11-1.79,0.16-2.7
		c0.12-0.81,0.26-1.54,0.44-2.18c0.17-0.64,0.53-1.29,1.06-1.97c0.46-0.56,0.98-1,1.55-1.34c0.57-0.34,1.13-0.6,1.67-0.8
		c0.55-0.2,1.03-0.33,1.46-0.4c0.43-0.07,0.75-0.13,0.96-0.17c1.41-0.12,2.83-0.21,4.24-0.28c1.41-0.07,2.84-0.1,4.28-0.1
		c1.46,0,2.9,0.03,4.33,0.09c1.43,0.06,2.87,0.11,4.33,0.16c0.88,0.14,1.74,0.32,2.58,0.54c0.84,0.22,1.6,0.66,2.3,1.31
		c0.46,0.42,0.82,0.92,1.08,1.5c0.26,0.58,0.44,1.19,0.56,1.81c0.12,0.63,0.19,1.26,0.23,1.9c0.04,0.64,0.05,1.24,0.05,1.79
		L299.46,33.06z"/>
	<path class="st1" d="M332.21,24.35v24.59h-7.8V24.35H332.21z"/>
	<path class="st1" d="M362.13,24.35c1.35,1.65,2.68,3.28,4,4.89c1.32,1.61,2.65,3.26,3.97,4.93c1.19,1.51,2.36,3.02,3.52,4.55
		c1.16,1.52,2.33,3.05,3.52,4.58L377,32.02v-7.66h7.11v24.59h-12.09c-1.46-1.76-2.91-3.53-4.34-5.29c-1.43-1.77-2.85-3.55-4.27-5.36
		c-1.04-1.35-2.08-2.7-3.1-4.06c-1.02-1.36-2.04-2.72-3.07-4.09v18.81h-7.18V24.35H362.13z"/>
	<path class="st1" d="M429.84,24.35v5.68h-11.08v18.91h-7.73V30.06h-10.87v-5.71H429.84z"/>
	<path class="st1" d="M453.46,24.35v8.99h16.96v-8.99h7.59v24.59h-7.63v-9.58h-17v9.58h-7.63V24.35H453.46z"/>
	<path class="st1" d="M130.36,85.77h-2.89l12.03-20.47h3.27l12.13,20.47h-2.83l-2.69-4.6h-16.35L130.36,85.77z M134.2,79.11h13.96
		l-7.03-12L134.2,79.11z"/>
	<path class="st1" d="M191.31,79.41c0,2.9-0.58,4.7-1.73,5.42c-1.15,0.71-3.32,1.07-6.52,1.07l-4.09,0.09l-5.83-0.09
		c-2.01,0-3.49-0.45-4.41-1.34c-0.93-0.89-1.39-2.35-1.39-4.37V65.33h2.47v14.5c0,1.63,0.37,2.67,1.1,3.13s1.98,0.69,3.75,0.69
		l4.37,0.15l4.73-0.15c1.91,0,3.24-0.23,3.97-0.7c0.73-0.47,1.1-1.57,1.1-3.3v-0.46V65.33h2.47V79.41z"/>
	<path class="st1" d="M214.44,85.77V67.39h-10.26V65.3h23.04v2.09h-10.32v18.38H214.44z"/>
	<path class="st1" d="M246.95,65.09h9c4.23,0,6.94,0.57,8.13,1.7c1.19,1.14,1.79,3.78,1.79,7.93v0.74v0.64
		c0,1.47-0.09,3.02-0.26,4.65c-0.17,1.63-0.75,2.88-1.74,3.76c-0.99,0.88-2.47,1.32-4.44,1.32c-0.61,0.06-1.39,0.1-2.33,0.12
		c-0.95,0.02-1.85,0.03-2.7,0.03h-4.55h-0.55c-1.24,0-2.44-0.06-3.59-0.18c-1.15-0.12-2.12-0.35-2.9-0.68
		c-0.78-0.33-1.42-0.9-1.92-1.71c-0.5-0.81-0.82-1.86-0.96-3.16c-0.14-1.29-0.21-2.82-0.21-4.59c0-1.66,0.02-2.86,0.06-3.59
		c0.04-0.73,0.21-1.77,0.5-3.12c0.29-1.35,1.01-2.34,2.15-2.95C243.57,65.4,245.08,65.09,246.95,65.09z M247.49,83.72l5.27,0.12h1.9
		h0.64c1.45,0,2.91-0.07,4.38-0.22c1.47-0.14,2.44-0.63,2.92-1.46c0.48-0.83,0.72-2.07,0.72-3.74v-4.21c0-1.29-0.05-2.41-0.15-3.37
		s-0.33-1.68-0.67-2.18c-0.35-0.5-0.8-0.83-1.36-0.98c-0.56-0.15-1.13-0.26-1.71-0.31c-0.58-0.05-1.2-0.08-1.85-0.08l-4.79-0.06
		l-4.73,0.06c-2.32,0-3.85,0.3-4.58,0.91s-1.1,2.04-1.1,4.3l-0.09,3.08v1.51c0,2.59,0.28,4.34,0.83,5.25
		C243.66,83.26,245.12,83.72,247.49,83.72z"/>
	<path class="st1" d="M296.58,85.77l-12.7-18.38v18.38h-2.47V65.3h4.02l12.16,17.55L309.8,65.3h3.96v20.47h-2.47V67.39l-12.73,18.38
		H296.58z"/>
	<path class="st1" d="M336.5,65.09h9c4.23,0,6.94,0.57,8.13,1.7c1.19,1.14,1.79,3.78,1.79,7.93v0.74v0.64
		c0,1.47-0.09,3.02-0.26,4.65c-0.17,1.63-0.75,2.88-1.74,3.76c-0.99,0.88-2.47,1.32-4.44,1.32c-0.61,0.06-1.39,0.1-2.33,0.12
		c-0.95,0.02-1.85,0.03-2.7,0.03h-4.55h-0.55c-1.24,0-2.44-0.06-3.59-0.18c-1.15-0.12-2.12-0.35-2.9-0.68
		c-0.78-0.33-1.42-0.9-1.92-1.71c-0.5-0.81-0.82-1.86-0.96-3.16c-0.14-1.29-0.21-2.82-0.21-4.59c0-1.66,0.02-2.86,0.06-3.59
		c0.04-0.73,0.21-1.77,0.5-3.12c0.29-1.35,1.01-2.34,2.15-2.95S334.63,65.09,336.5,65.09z M337.04,83.72l5.27,0.12h1.9h0.64
		c1.45,0,2.91-0.07,4.38-0.22c1.47-0.14,2.44-0.63,2.92-1.46c0.48-0.83,0.72-2.07,0.72-3.74v-4.21c0-1.29-0.05-2.41-0.15-3.37
		s-0.33-1.68-0.67-2.18c-0.35-0.5-0.8-0.83-1.36-0.98c-0.56-0.15-1.13-0.26-1.71-0.31c-0.58-0.05-1.2-0.08-1.85-0.08l-4.79-0.06
		l-4.73,0.06c-2.32,0-3.85,0.3-4.58,0.91c-0.73,0.61-1.1,2.04-1.1,4.3l-0.09,3.08v1.51c0,2.59,0.28,4.34,0.83,5.25
		C333.21,83.26,334.67,83.72,337.04,83.72z"/>
	<path class="st1" d="M378.14,85.77V67.39h-10.26V65.3h23.04v2.09h-10.32v18.38H378.14z"/>
	<path class="st1" d="M406.49,85.77h-2.47V65.3h2.47V85.77z"/>
	<path class="st1" d="M444.97,65.3l-11.29,20.47h-3.39L419.17,65.3h2.86l9.98,18.26l10.13-18.26H444.97z"/>
	<path class="st1" d="M477.18,74.17v2.06h-17.06v7.49h17.92v2.06h-20.39V65.3h20.18v2.09h-17.7v6.78H477.18z"/>
</g>
</svg>
